<?xml version="1.0" encoding="UTF-8" standalone="no"?><svg xmlns="http://www.w3.org/2000/svg" xmlns:xlink="http://www.w3.org/1999/xlink" contentStyleType="text/css" height="1529px" preserveAspectRatio="none" style="width:1341px;height:1529px;background:#FFFFFF;" version="1.1" viewBox="0 0 1341 1529" width="1341px" zoomAndPan="magnify"><defs/><g><text fill="#000000" font-family="sans-serif" font-size="30" font-weight="bold" lengthAdjust="spacing" textLength="309" x="509" y="64.0039">Archelon ↔ Plastron</text><text fill="#000000" font-family="sans-serif" font-size="30" font-weight="bold" lengthAdjust="spacing" textLength="544" x="391.5" y="99.3359">Asynchonous Job Information Flow</text><!--cluster Archelon--><g id="cluster_Archelon"><rect fill="none" height="567.33" rx="2.5" ry="2.5" style="stroke:#181818;stroke-width:1.0;" width="503" x="171" y="148.6641"/><rect fill="none" height="10" style="stroke:#181818;stroke-width:1.0;" width="15" x="654" y="153.6641"/><rect fill="none" height="2" style="stroke:#181818;stroke-width:1.0;" width="4" x="652" y="155.6641"/><rect fill="none" height="2" style="stroke:#181818;stroke-width:1.0;" width="4" x="652" y="159.6641"/><text fill="#000000" font-family="sans-serif" font-size="30" font-weight="bold" lengthAdjust="spacing" textLength="139" x="353" y="190.668">Archelon</text></g><!--cluster ImportJobsController--><g id="cluster_ImportJobsController"><rect fill="none" height="160.66" rx="2.5" ry="2.5" style="stroke:#181818;stroke-width:1.0;" width="455" x="195" y="531.3341"/><rect fill="none" height="10" style="stroke:#181818;stroke-width:1.0;" width="15" x="630" y="536.3341"/><rect fill="none" height="2" style="stroke:#181818;stroke-width:1.0;" width="4" x="628" y="538.3341"/><rect fill="none" height="2" style="stroke:#181818;stroke-width:1.0;" width="4" x="628" y="542.3341"/><text fill="#000000" font-family="sans-serif" font-size="30" font-weight="bold" lengthAdjust="spacing" textLength="330" x="257.5" y="573.338">ImportJobsController</text></g><!--cluster ActiveMQ--><g id="cluster_ActiveMQ"><rect fill="none" height="352" rx="2.5" ry="2.5" style="stroke:#181818;stroke-width:1.0;" width="792" x="7" y="813.9941"/><rect fill="none" height="10" style="stroke:#181818;stroke-width:1.0;" width="15" x="779" y="818.9941"/><rect fill="none" height="2" style="stroke:#181818;stroke-width:1.0;" width="4" x="777" y="820.9941"/><rect fill="none" height="2" style="stroke:#181818;stroke-width:1.0;" width="4" x="777" y="824.9941"/><text fill="#000000" font-family="sans-serif" font-size="30" font-weight="bold" lengthAdjust="spacing" textLength="148" x="329" y="855.998">ActiveMQ</text></g><!--cluster Plastron--><g id="cluster_Plastron"><rect fill="none" height="478" rx="2.5" ry="2.5" style="stroke:#181818;stroke-width:1.0;" width="512" x="823" y="1045.6541"/><rect fill="none" height="10" style="stroke:#181818;stroke-width:1.0;" width="15" x="1315" y="1050.6541"/><rect fill="none" height="2" style="stroke:#181818;stroke-width:1.0;" width="4" x="1313" y="1052.6541"/><rect fill="none" height="2" style="stroke:#181818;stroke-width:1.0;" width="4" x="1313" y="1056.6541"/><text fill="#000000" font-family="sans-serif" font-size="30" font-weight="bold" lengthAdjust="spacing" textLength="384" x="887" y="1087.658">Plastron STOMP Daemon</text></g><!--entity ImportJobsForm--><g id="elem_ImportJobsForm"><rect fill="#F1F1F1" height="65.332" rx="2.5" ry="2.5" style="stroke:#181818;stroke-width:0.5;" width="272" x="299" y="202.6641"/><rect fill="#F1F1F1" height="10" style="stroke:#181818;stroke-width:0.5;" width="15" x="551" y="207.6641"/><rect fill="#F1F1F1" height="2" style="stroke:#181818;stroke-width:0.5;" width="4" x="549" y="209.6641"/><rect fill="#F1F1F1" height="2" style="stroke:#181818;stroke-width:0.5;" width="4" x="549" y="213.6641"/><text fill="#000000" font-family="sans-serif" font-size="30" lengthAdjust="spacing" textLength="232" x="314" y="251.668">ImportJobsForm</text></g><!--entity ImportJobsChannel--><g id="elem_ImportJobsChannel"><rect fill="#F1F1F1" height="65.332" rx="2.5" ry="2.5" style="stroke:#181818;stroke-width:0.5;" width="319" x="192.5" y="388.9941"/><rect fill="#F1F1F1" height="10" style="stroke:#181818;stroke-width:0.5;" width="15" x="491.5" y="393.9941"/><rect fill="#F1F1F1" height="2" style="stroke:#181818;stroke-width:0.5;" width="4" x="489.5" y="395.9941"/><rect fill="#F1F1F1" height="2" style="stroke:#181818;stroke-width:0.5;" width="4" x="489.5" y="399.9941"/><text fill="#000000" font-family="sans-serif" font-size="30" lengthAdjust="spacing" textLength="279" x="207.5" y="437.998">ImportJobsChannel</text></g><!--entity import--><g id="elem_import"><rect fill="#F1F1F1" height="90.6641" rx="2.5" ry="2.5" style="stroke:#181818;stroke-width:0.5;" width="162" x="472" y="585.3341"/><text fill="#000000" font-family="sans-serif" font-size="30" font-style="italic" lengthAdjust="spacing" textLength="142" x="482" y="624.338">«Method»</text><text fill="#000000" font-family="sans-serif" font-size="30" lengthAdjust="spacing" textLength="97" x="504.5" y="659.67">import</text></g><!--entity status_update--><g id="elem_status_update"><rect fill="#F1F1F1" height="90.6641" rx="2.5" ry="2.5" style="stroke:#181818;stroke-width:0.5;" width="225" x="211.5" y="585.3341"/><text fill="#000000" font-family="sans-serif" font-size="30" font-style="italic" lengthAdjust="spacing" textLength="142" x="253" y="624.338">«Method»</text><text fill="#000000" font-family="sans-serif" font-size="30" lengthAdjust="spacing" textLength="205" x="221.5" y="659.67">status_update</text></g><!--entity Jobs--><g id="elem_Jobs"><path d="M454.5,895.6641 L777.5,895.6641 C782.5,895.6641 782.5,918.3301 782.5,918.3301 C782.5,918.3301 782.5,940.9961 777.5,940.9961 L454.5,940.9961 C449.5,940.9961 449.5,918.3301 449.5,918.3301 C449.5,918.3301 449.5,895.6641 454.5,895.6641 " fill="#F1F1F1" style="stroke:#181818;stroke-width:0.5;"/><path d="M777.5,895.6641 C772.5,895.6641 772.5,918.3301 772.5,918.3301 C772.5,940.9961 777.5,940.9961 777.5,940.9961 " fill="none" style="stroke:#181818;stroke-width:0.5;"/><text fill="#000000" font-family="sans-serif" font-size="30" lengthAdjust="spacing" textLength="313" x="454.5" y="929.668">/queue/plastron.jobs</text></g><!--entity JobStatus--><g id="elem_JobStatus"><path d="M358,1104.6541 L778,1104.6541 C783,1104.6541 783,1127.3201 783,1127.3201 C783,1127.3201 783,1149.9861 778,1149.9861 L358,1149.9861 C353,1149.9861 353,1127.3201 353,1127.3201 C353,1127.3201 353,1104.6541 358,1104.6541 " fill="#F1F1F1" style="stroke:#181818;stroke-width:0.5;"/><path d="M778,1104.6541 C773,1104.6541 773,1127.3201 773,1127.3201 C773,1149.9861 778,1149.9861 778,1149.9861 " fill="none" style="stroke:#181818;stroke-width:0.5;"/><text fill="#000000" font-family="sans-serif" font-size="30" lengthAdjust="spacing" textLength="410" x="358" y="1138.658">/queue/plastron.jobs.status</text></g><!--entity PlastronJobsStatusRoute--><g id="elem_PlastronJobsStatusRoute"><rect fill="#F1F1F1" height="100.6641" rx="2.5" ry="2.5" style="stroke:#181818;stroke-width:0.5;" width="392" x="23" y="867.9941"/><rect fill="#F1F1F1" height="10" style="stroke:#181818;stroke-width:0.5;" width="15" x="395" y="872.9941"/><rect fill="#F1F1F1" height="2" style="stroke:#181818;stroke-width:0.5;" width="4" x="393" y="874.9941"/><rect fill="#F1F1F1" height="2" style="stroke:#181818;stroke-width:0.5;" width="4" x="393" y="878.9941"/><text fill="#000000" font-family="sans-serif" font-size="30" font-style="italic" lengthAdjust="spacing" textLength="217" x="105.5" y="916.998">«Camel Route»</text><text fill="#000000" font-family="sans-serif" font-size="30" lengthAdjust="spacing" textLength="352" x="38" y="952.33">PlastronJobsStatusRoute</text></g><!--entity CommandListener--><g id="elem_CommandListener"><rect fill="#F1F1F1" height="55.332" rx="2.5" ry="2.5" style="stroke:#181818;stroke-width:0.5;" width="286" x="839" y="1099.6541"/><text fill="#000000" font-family="sans-serif" font-size="30" lengthAdjust="spacing" textLength="266" x="849" y="1138.658">CommandListener</text></g><!--entity MessageProcessor--><g id="elem_MessageProcessor"><rect fill="#F1F1F1" height="55.332" rx="2.5" ry="2.5" style="stroke:#181818;stroke-width:0.5;" width="285" x="839.5" y="1275.9941"/><text fill="#000000" font-family="sans-serif" font-size="30" lengthAdjust="spacing" textLength="265" x="849.5" y="1314.998">MessageProcessor</text></g><!--entity AsynchronousResponseHandler--><g id="elem_AsynchronousResponseHandler"><rect fill="#F1F1F1" height="55.332" rx="2.5" ry="2.5" style="stroke:#181818;stroke-width:0.5;" width="480" x="839" y="1452.3241"/><text fill="#000000" font-family="sans-serif" font-size="30" lengthAdjust="spacing" textLength="460" x="849" y="1491.328">AsynchronousResponseHandler</text></g><!--link ImportJobsForm to import--><g id="link_ImportJobsForm_import"><path d="M541.25,268.3541 C541.25,268.3541 541.25,578.3841 541.25,578.3841 " fill="none" id="ImportJobsForm-to-import" style="stroke:#181818;stroke-width:1.0;stroke-dasharray:7.0,7.0;"/><polygon fill="#181818" points="541.25,583.3841,545.25,574.3841,541.25,578.3841,537.25,574.3841,541.25,583.3841" style="stroke:#181818;stroke-width:1.0;"/><text fill="#000000" font-family="sans-serif" font-size="13" lengthAdjust="spacing" textLength="36" x="542.25" y="419.9424">job id</text></g><!--link import to Jobs--><g id="link_import_Jobs"><path d="M553,676.2441 C553,676.2441 553,888.7541 553,888.7541 " fill="none" id="import-to-Jobs" style="stroke:#181818;stroke-width:1.0;stroke-dasharray:7.0,7.0;"/><polygon fill="#181818" points="553,893.7541,557,884.7541,553,888.7541,549,884.7541,553,893.7541" style="stroke:#181818;stroke-width:1.0;"/><text fill="#000000" font-family="sans-serif" font-size="13" lengthAdjust="spacing" textLength="102" x="450" y="779.0624">STOMP message</text></g><!--link Jobs to CommandListener--><g id="link_Jobs_CommandListener"><path d="M782.93,918.3241 C879.46,918.3241 982,918.3241 982,918.3241 C982,918.3241 982,1093.0541 982,1093.0541 " fill="none" id="Jobs-to-CommandListener" style="stroke:#181818;stroke-width:1.0;stroke-dasharray:7.0,7.0;"/><polygon fill="#181818" points="982,1098.0541,986,1089.0541,982,1093.0541,978,1089.0541,982,1098.0541" style="stroke:#181818;stroke-width:1.0;"/><text fill="#000000" font-family="sans-serif" font-size="13" lengthAdjust="spacing" textLength="121" x="847.83" y="914.8924">command message</text></g><!--reverse link JobStatus to MessageProcessor--><g id="link_JobStatus_MessageProcessor"><path d="M639.67,1156.8941 C639.67,1156.8941 639.67,1303.6541 639.67,1303.6541 C639.67,1303.6541 745.37,1303.6541 839.3,1303.6541 " fill="none" id="JobStatus-backto-MessageProcessor" style="stroke:#181818;stroke-width:1.0;stroke-dasharray:7.0,7.0;"/><polygon fill="#181818" points="639.67,1151.8941,635.67,1160.8941,639.67,1156.8941,643.67,1160.8941,639.67,1151.8941" style="stroke:#181818;stroke-width:1.0;"/><text fill="#000000" font-family="sans-serif" font-size="13" lengthAdjust="spacing" textLength="114" x="551.1" y="1300.2224">progress message</text></g><!--reverse link JobStatus to AsynchronousResponseHandler--><g id="link_JobStatus_AsynchronousResponseHandler"><path d="M496.33,1156.9741 C496.33,1156.9741 496.33,1479.9841 496.33,1479.9841 C496.33,1479.9841 678.14,1479.9841 838.64,1479.9841 " fill="none" id="JobStatus-backto-AsynchronousResponseHandler" style="stroke:#181818;stroke-width:1.0;stroke-dasharray:7.0,7.0;"/><polygon fill="#181818" points="496.33,1151.9741,492.33,1160.9741,496.33,1156.9741,500.33,1160.9741,496.33,1151.9741" style="stroke:#181818;stroke-width:1.0;"/><text fill="#000000" font-family="sans-serif" font-size="13" lengthAdjust="spacing" textLength="98" x="406.98" y="1476.5524">status message</text></g><!--link CommandListener to MessageProcessor--><g id="link_CommandListener_MessageProcessor"><path d="M982,1155.2641 C982,1155.2641 982,1269.0441 982,1269.0441 " fill="none" id="CommandListener-to-MessageProcessor" style="stroke:#181818;stroke-width:1.0;stroke-dasharray:7.0,7.0;"/><polygon fill="#181818" points="982,1274.0441,986,1265.0441,982,1269.0441,978,1265.0441,982,1274.0441" style="stroke:#181818;stroke-width:1.0;"/><text fill="#000000" font-family="sans-serif" font-size="13" lengthAdjust="spacing" textLength="62" x="919" y="1208.7224">command</text></g><!--link MessageProcessor to AsynchronousResponseHandler--><g id="link_MessageProcessor_AsynchronousResponseHandler"><path d="M982,1331.5941 C982,1331.5941 982,1445.3741 982,1445.3741 " fill="none" id="MessageProcessor-to-AsynchronousResponseHandler" style="stroke:#181818;stroke-width:1.0;stroke-dasharray:7.0,7.0;"/><polygon fill="#181818" points="982,1450.3741,986,1441.3741,982,1445.3741,978,1441.3741,982,1450.3741" style="stroke:#181818;stroke-width:1.0;"/><text fill="#000000" font-family="sans-serif" font-size="13" lengthAdjust="spacing" textLength="109" x="872" y="1385.0524">processing result</text></g><!--reverse link PlastronJobsStatusRoute to JobStatus--><g id="link_PlastronJobsStatusRoute_JobStatus"><path d="M384,975.4341 C384,975.4341 384,1104.4241 384,1104.4241 " fill="none" id="PlastronJobsStatusRoute-backto-JobStatus" style="stroke:#181818;stroke-width:1.0;stroke-dasharray:7.0,7.0;"/><polygon fill="#181818" points="384,970.4341,380,979.4341,384,975.4341,388,979.4341,384,970.4341" style="stroke:#181818;stroke-width:1.0;"/><text fill="#000000" font-family="sans-serif" font-size="13" lengthAdjust="spacing" textLength="98" x="285" y="1036.4924">status message</text></g><!--reverse link status_update to PlastronJobsStatusRoute--><g id="link_status_update_PlastronJobsStatusRoute"><path d="M313.25,682.7541 C313.25,682.7541 313.25,867.6341 313.25,867.6341 " fill="none" id="status_update-backto-PlastronJobsStatusRoute" style="stroke:#181818;stroke-width:1.0;stroke-dasharray:7.0,7.0;"/><polygon fill="#181818" points="313.25,677.7541,309.25,686.7541,313.25,682.7541,317.25,686.7541,313.25,677.7541" style="stroke:#181818;stroke-width:1.0;"/><text fill="#000000" font-family="sans-serif" font-size="13" lengthAdjust="spacing" textLength="98" x="214.25" y="771.7624">status message</text></g><!--reverse link ImportJobsChannel to status_update--><g id="link_ImportJobsChannel_status_update"><path d="M324,461.2941 C324,461.2941 324,584.8741 324,584.8741 " fill="none" id="ImportJobsChannel-backto-status_update" style="stroke:#181818;stroke-width:1.0;stroke-dasharray:7.0,7.0;"/><polygon fill="#181818" points="324,456.2941,320,465.2941,324,461.2941,328,465.2941,324,456.2941" style="stroke:#181818;stroke-width:1.0;"/><text fill="#000000" font-family="sans-serif" font-size="13" lengthAdjust="spacing" textLength="63" x="260" y="519.6524">job status</text></g><!--reverse link ImportJobsForm to ImportJobsChannel--><g id="link_ImportJobsForm_ImportJobsChannel"><path d="M405.25,274.7241 C405.25,274.7241 405.25,388.7941 405.25,388.7941 " fill="none" id="ImportJobsForm-backto-ImportJobsChannel" style="stroke:#181818;stroke-width:1.0;stroke-dasharray:7.0,7.0;"/><polygon fill="#181818" points="405.25,269.7241,401.25,278.7241,405.25,274.7241,409.25,278.7241,405.25,269.7241" style="stroke:#181818;stroke-width:1.0;"/><text fill="#000000" font-family="sans-serif" font-size="13" lengthAdjust="spacing" textLength="63" x="341.25" y="328.3324">job status</text></g><!--SRC=[XLF1Rjim3BthAuXyW3DWjy88C6G8rg76igRtGRCvHvjCUfBS8XjwtHVi2_SbeoMdIUowzSMc-DxZ8odx7uPQxNG3DuOm75e4Tc7FAlVXO76bxaom2ByLo5DeLnk2jszYj64AE_CB-_XHvSk147f21BnpvHuj4_pxynUsLllWc5B67wZSCt7duID_XMlwngxHmGXuO_b18LMGX5J9JSk454vwoSqfSIqVBeYGtuZCR78jXXrRYsvGw1-7PT1KIuyc0Y7FeK2PG0MhrJCe7tJe_9UkhNJ0AVXnllfU4w6LKPrrL0PpZyNdmS_F3Zk4nJA-b-qmiUoxi1UWuwZyQy0i6JpYTp4QcJhkejTBW5lkOZThtQ2564b3vrONHnBixZuLMtYliM6APPuogOlJhDRSD9gg6-C34hfHja3lTOrRnwLyyJYTxeYBb-GMlTZm-47KP7rYJ5tk7B9iTLpW5SWSm5HgYBEiJyRXIIwvRr9j5GzZVkHLa6KwESUcOK6UPHFtGcWTrqw26SOB3GavhUs9giP-eibdYWukrIGL2I_NR1FOK2rpzvqDIirU3P4xtQUftz5lqSzyzffDo9EV99Mxr4nhJMVZxKVuLEM2yXy0]--></g></svg>